<svg width="512" height="512" xmlns="http://www.w3.org/2000/svg">

 <g>
  <title>background</title>
  <rect fill="none" id="canvas_background" height="402" width="582" y="-1" x="-1"/>
 </g>
 <g>
  <title fill="#d82f2f">Layer 1</title>
  <path fill="#d82f2f" id="XMLID_156_" d="m187.7,329l-11.4,0l0,51.3l11.4,0c5.6,0 10.1,-1.9 13.4,-5.7c3.3,-3.8 5,-8.7 5,-14.6l0,-10.7c0,-5.9 -1.7,-10.7 -5,-14.5c-3.3,-3.9 -7.8,-5.8 -13.4,-5.8z" class="st0"/>
  <path fill="#d82f2f" id="XMLID_56_" d="m365.6,285.9l-325.3,0l0,133.9l276.3,0l49,-133.9zm-221.7,71.3c-4.4,4 -10.4,5.9 -18.1,5.9l-15.1,0l0,26.5l-11.7,0l0,-70l26.8,0c7.7,0 13.8,2 18.1,6c4.4,4 6.6,9.2 6.6,15.7c0,6.7 -2.2,11.9 -6.6,15.9zm73.8,2.8c0,8.8 -2.8,15.9 -8.3,21.4c-5.6,5.5 -12.8,8.3 -21.7,8.3l-23.1,0l0,-70l23.1,0c8.9,0 16.1,2.8 21.7,8.3c5.6,5.5 8.3,12.7 8.3,21.4l0,10.6zm60.6,-31l-33.1,0l0,21.4l28.2,0l0,9.4l-28.2,0l0,29.9l-11.7,0l0,-70l44.8,0l0,9.3z" class="st0"/>
  <path fill="#d82f2f" id="XMLID_55_" d="m125.8,329l-15.1,0l0,24.7l15.1,0c4.3,0 7.6,-1.2 9.8,-3.5c2.2,-2.3 3.3,-5.2 3.3,-8.8s-1.1,-6.5 -3.3,-8.9c-2.2,-2.3 -5.5,-3.5 -9.8,-3.5z" class="st0"/>
  <path fill="#d82f2f" id="XMLID_29_" d="m352.9,6l0,0l-245.5,0c-7.3,0 -13.3,6 -13.3,13.3l0,256.8l26.6,0l0,-243.5l232.2,0l0,92.2l92.2,0l0,354.6l-324.4,0l0,-49.8l-26.6,0l0,63.1c0,7.3 6,13.3 13.3,13.3l351,0c7.3,0 13.3,-6 13.3,-13.3l0,-367.9l-118.8,-118.8z" class="st0"/>
  <rect fill="#d82f2f" y="171.4" x="156.2" width="253.4" id="XMLID_28_" height="19.6" class="st0"/>
  <rect fill="#d82f2f" y="209.5" x="156.2" width="213.3" id="XMLID_27_" height="19.6" class="st0"/>
 </g>
</svg>