<svg width="512" height="512" xmlns="http://www.w3.org/2000/svg">

 <g>
  <title>background</title>
  <rect fill="none" id="canvas_background" height="402" width="582" y="-1" x="-1"/>
 </g>
 <g>
  <title fill="#5656ff">Layer 1</title>
  <path fill="#5656ff" id="XMLID_894_" d="m365.6,285.9l-325.3,0l0,133.9l276.3,0l49,-133.9zm-209.1,41.5l-21.6,0l0,60.6l-11.7,0l0,-60.6l-21.3,0l0,-9.4l54.6,0l0,9.4zm51.1,60.6l-15.2,-26.3l-15.2,26.3l-13.8,0l22,-35.3l-21.6,-34.7l13.8,0l14.6,25.9l14.8,-25.9l13.8,0l-21.5,34.7l22.4,35.3l-14.1,0zm75.1,-60.6l-21.7,0l0,60.6l-11.7,0l0,-60.6l-21.3,0l0,-9.4l54.6,0l0,9.4l0.1,0z" class="st0"/>
  <path fill="#5656ff" id="XMLID_893_" d="m352.9,6l0,0l-245.5,0c-7.3,0 -13.3,6 -13.3,13.3l0,256.8l26.6,0l0,-243.5l232.2,0l0,92.2l92.2,0l0,354.6l-324.4,0l0,-49.8l-26.6,0l0,63.1c0,7.3 6,13.3 13.3,13.3l351,0c7.3,0 13.3,-6 13.3,-13.3l0,-367.9l-118.8,-118.8z" class="st0"/>
  <rect fill="#5656ff" y="171.4" x="156.2" width="253.4" id="XMLID_892_" height="19.6" class="st0"/>
  <rect fill="#5656ff" y="209.5" x="156.2" width="213.3" id="XMLID_891_" height="19.6" class="st0"/>
 </g>
</svg>