<?xml version="1.0" encoding="UTF-8" standalone="no"?>
<svg
   xmlns:dc="http://purl.org/dc/elements/1.1/"
   xmlns:cc="http://creativecommons.org/ns#"
   xmlns:rdf="http://www.w3.org/1999/02/22-rdf-syntax-ns#"
   xmlns:svg="http://www.w3.org/2000/svg"
   xmlns="http://www.w3.org/2000/svg"
   xmlns:sodipodi="http://sodipodi.sourceforge.net/DTD/sodipodi-0.dtd"
   xmlns:inkscape="http://www.inkscape.org/namespaces/inkscape"
   inkscape:version="1.0 (4035a4fb49, 2020-05-01)"
   sodipodi:docname="Crash.svg"
   id="svg1558"
   version="1.1"
   height="67"
   width="67">
  <metadata
     id="metadata1564">
    <rdf:RDF>
      <cc:Work
         rdf:about="">
        <dc:format>image/svg+xml</dc:format>
        <dc:type
           rdf:resource="http://purl.org/dc/dcmitype/StillImage" />
        <dc:title></dc:title>
      </cc:Work>
    </rdf:RDF>
  </metadata>
  <defs
     id="defs1562">
    <style
       id="style871">.cls-1{fill:#5175ed;}.cls-2{fill:#ffb16e;}.cls-3{fill:#5861c4;}.cls-4{fill:#2d2e2d;}</style>
  </defs>
  <sodipodi:namedview
     inkscape:current-layer="svg1558"
     inkscape:window-maximized="0"
     inkscape:window-y="99"
     inkscape:window-x="453"
     inkscape:cy="33.5"
     inkscape:cx="33.5"
     inkscape:zoom="7.6322099"
     showgrid="false"
     id="namedview1560"
     inkscape:window-height="1105"
     inkscape:window-width="1561"
     inkscape:pageshadow="2"
     inkscape:pageopacity="0"
     guidetolerance="10"
     gridtolerance="10"
     objecttolerance="10"
     borderopacity="1"
     bordercolor="#666666"
     pagecolor="#ffffff" />
  <g
     id="g1550">
    <title
       id="title1547">background</title>
    <rect
       x="-1"
       y="-1"
       width="582"
       height="402"
       id="canvas_background"
       fill="none" />
  </g>
  <g
     transform="matrix(1.5398513,0,0,1.5398513,-108.28695,-158.55523)"
     id="g920">
    <path
       style="stroke-width:0.264583"
       id="path877"
       d="m 106.60365,120.04931 c -0.33867,-0.0238 -0.69586,-0.037 -1.09273,-0.037 h -0.0952 a 26.392187,26.392187 0 0 0 -4.81277,0.52916 0.94985415,0.94985415 0 0 0 -0.751418,1.08744 c 1.087438,6.05102 -0.873125,12.90638 -3.156479,16.71638 a 0.96308332,0.96308332 0 0 0 -0.06085,0.88106 0.94985415,0.94985415 0 0 0 0.669396,0.55562 45.963416,45.963416 0 0 0 6.207121,0.91282 h 0.0767 a 0.95249999,0.95249999 0 0 0 0.84667,-0.51065 c 2.82839,-5.41073 4.00579,-12.81642 3.06652,-19.31458 a 0.97102082,0.97102082 0 0 0 -0.89694,-0.82021 z"
       class="cls-1" />
    <path
       style="stroke-width:0.264583"
       id="path879"
       d="m 88.164837,122.15539 a 0.95779165,0.95779165 0 0 0 0.722312,0.32544 v 0 a 0.90487499,0.90487499 0 0 0 0.600604,-0.21167 c 4.569354,-3.86556 11.173357,-5.61446 15.692437,-5.63562 h 0.39158 a 0.92074999,0.92074999 0 0 0 0.762,-0.38629 0.94985415,0.94985415 0 0 0 0.14552,-0.8599 45.989874,45.989874 0 0 0 -2.32039,-5.82083 0.99483332,0.99483332 0 0 0 -0.91281,-0.55563 c -6.08542,0.25929 -13.094233,2.93952 -18.256253,7.01146 a 0.96572915,0.96572915 0 0 0 -0.264584,1.18269 c 1.026584,2.09021 2.595563,4.00579 3.439584,4.95035 z"
       class="cls-2" />
    <path
       style="stroke-width:0.264583"
       id="path881"
       d="m 95.083691,130.91575 c -5.773209,-2.13519 -10.689167,-7.3078 -12.811125,-11.21305 a 0.94456249,0.94456249 0 0 0 -0.722313,-0.48683 0.97366665,0.97366665 0 0 0 -0.129645,0 0.95779165,0.95779165 0 0 0 -0.6985,0.30692 45.796729,45.796729 0 0 0 -3.934355,4.88421 0.96043749,0.96043749 0 0 0 -0.0291,1.05833 c 3.2385,5.1726 9.024938,9.9404 15.110354,12.43542 a 0.91016666,0.91016666 0 0 0 0.34925,0.0661 v 0 a 0.97366665,0.97366665 0 0 0 0.806979,-0.43127 23.979187,23.979187 0 0 0 2.61673,-5.42131 0.95249999,0.95249999 0 0 0 -0.558271,-1.19856 z"
       class="cls-3" />
  </g>
</svg>
